<svg xmlns="http://www.w3.org/2000/svg" width="100" height="100" viewBox="0 0 100 100" fill="none"><script xmlns=""/>
<path fill-rule="evenodd" clip-rule="evenodd" d="M78 0.00390625C90.1503 0.00390625 100 9.85364 100 22.0039V78.0039C100 90.1542 90.1503 100.004 78 100.004H22C9.84974 100.004 0 90.1542 0 78.0039V22.0039C2.06176e-06 9.85364 9.84974 0.00390625 22 0.00390625H78ZM56.2998 25.4209C56.7781 22.8904 53.5876 21.3758 51.9248 23.3389L26.6543 53.1748C25.2515 54.8313 26.4703 57.3681 28.6416 57.3027L46.9941 56.7383L43.6504 74.5791C43.1724 77.1096 46.3632 78.6238 48.0273 76.6602L73.2998 46.8232C74.7039 45.1667 73.4828 42.6298 71.3115 42.6953L52.9561 43.2607L56.2998 25.4209Z" fill="black"/>
</svg>