<svg width="231" height="48" viewBox="0 0 231 48" fill="none" xmlns="http://www.w3.org/2000/svg">
<path d="M0.425781 12.6316C0.425781 5.65535 6.08113 0 13.0574 0H35.7942C42.7704 0 48.4258 5.65535 48.4258 12.6316V35.3684C48.4258 42.3446 42.7704 48 35.7942 48H13.0574C6.08113 48 0.425781 42.3446 0.425781 35.3684V12.6316Z" fill="#465FFF"/>
<g transform="translate(4.42, 4) scale(0.702)" fill="white">
<path d="M40 16.3L32.7 7.4L30.7 4.1L32.3 0L22.6 8.2L29.9 17L31.9 20.3L30.3 24.4L40 16.3Z"/>
<path d="M25.9 12.3L14.5 12.5L10.7 12L8.59998 8.2L8.89996 20.9L20.3 20.7L24.1 21.2L26.2 25L25.9 12.3Z"/>
<path d="M14 20.9L7.10001 30L4.39999 32.8L0 32.1L10.1 39.7L17 30.6L19.7 27.9L24.1 28.6L14 20.9Z"/>
<path d="M13.3 35.6L16 46.7L16.5 50.5L13.2 53.5L25.4 50.3L22.6 39.2L22.1 35.4L25.4 32.5L13.3 35.6Z"/>
<path d="M24.3 45.3L34.6 50.1L37.9 52.2L38.2 56.6L43.3 45L32.9 40.2L29.6 38.2L29.3 33.8L24.3 45.3Z"/>
<path d="M38.7 42.7L48.9 37.6L52.5 36.3L56.1 38.8L50.3 27.6L40.1 32.7L36.4 34L32.8 31.5L38.7 42.7Z"/>
<path d="M45.7 29.8L48 18.6L49.3 14.9L53.5 13.7L41.1 11.2L38.8 22.4L37.5 26.1L33.3 27.3L45.7 29.8Z"/>
</g>
<path d="M66.4258 15.1724H74.0585V37.0363H78.6239V15.1724H86.2567V10.9637H66.4258V15.1724Z" fill="white"/>
<path d="M91.3521 37.5C94.0984 37.5 96.4881 36.2516 97.2371 34.4326L97.5581 37.0363H101.375V26.3362C101.375 21.4498 98.4498 18.8818 93.7061 18.8818C88.9267 18.8818 85.788 21.3785 85.788 25.1948H89.4974C89.4974 23.3402 90.9241 22.2701 93.4921 22.2701C95.7035 22.2701 97.1301 23.2332 97.1301 25.6229V26.0152L91.8514 26.4075C87.6784 26.7285 85.3243 28.7616 85.3243 32.0073C85.3243 35.3243 87.607 37.5 91.3521 37.5ZM92.7788 34.2186C90.8171 34.2186 89.747 33.4339 89.747 31.8289C89.747 30.4022 90.7814 29.5106 93.4921 29.2609L97.1658 28.9756V29.9029C97.1658 32.6136 95.4538 34.2186 92.7788 34.2186Z" fill="white"/>
<path d="M107.825 15.8857C109.252 15.8857 110.429 14.7087 110.429 13.2464C110.429 11.784 109.252 10.6427 107.825 10.6427C106.327 10.6427 105.15 11.784 105.15 13.2464C105.15 14.7087 106.327 15.8857 107.825 15.8857ZM105.649 37.0363H110.001V19.4168H105.649V37.0363Z" fill="white"/>
<path d="M118.883 37.0363V10.5H114.568V37.0363H118.883Z" fill="white"/>
<path d="M126.337 37.0363L128.441 31.0086H138.179L140.283 37.0363H145.098L135.682 10.9637H131.009L121.593 37.0363H126.337ZM132.757 18.7391C133.007 18.0258 133.221 17.2411 133.328 16.7417C133.399 17.2768 133.649 18.0614 133.863 18.7391L136.859 27.1565H129.797L132.757 18.7391Z" fill="white"/>
<path d="M154.165 37.5C156.84 37.5 159.122 36.323 160.192 34.29L160.478 37.0363H164.472V10.5H160.157V21.6638C159.051 19.9161 156.875 18.8818 154.414 18.8818C149.1 18.8818 145.89 22.8052 145.89 28.2979C145.89 33.755 149.064 37.5 154.165 37.5ZM155.128 33.5053C152.096 33.5053 150.241 31.2939 150.241 28.1552C150.241 25.0165 152.096 22.7695 155.128 22.7695C158.159 22.7695 160.121 24.9808 160.121 28.1552C160.121 31.3296 158.159 33.5053 155.128 33.5053Z" fill="white"/>
<path d="M173.359 37.0363V27.0495C173.359 24.1962 175.035 22.8408 177.104 22.8408C179.172 22.8408 180.492 24.1605 180.492 26.6215V37.0363H184.843V27.0495C184.843 24.1605 186.448 22.8052 188.553 22.8052C190.621 22.8052 191.977 24.1248 191.977 26.6572V37.0363H196.292V25.5159C196.292 21.4498 193.938 18.8818 189.658 18.8818C186.983 18.8818 184.915 20.2015 184.023 22.2345C183.096 20.2015 181.241 18.8818 178.566 18.8818C176.034 18.8818 174.25 20.0231 173.359 21.4855L173.002 19.4168H169.007V37.0363H173.359Z" fill="white"/>
<path d="M202.74 15.8857C204.167 15.8857 205.344 14.7087 205.344 13.2464C205.344 11.784 204.167 10.6427 202.74 10.6427C201.242 10.6427 200.065 11.784 200.065 13.2464C200.065 14.7087 201.242 15.8857 202.74 15.8857ZM200.564 37.0363H204.916V19.4168H200.564V37.0363Z" fill="white"/>
<path d="M213.763 37.0363V27.5489C213.763 24.6955 215.403 22.8408 218.078 22.8408C220.325 22.8408 221.788 24.2675 221.788 27.2279V37.0363H226.139V26.1935C226.139 21.6281 223.856 18.8818 219.434 18.8818C217.044 18.8818 214.904 19.9161 213.798 21.6995L213.442 19.4168H209.411V37.0363H213.763Z" fill="white"/>
</svg>
