<svg width="32" height="32" viewBox="0 0 32 32" fill="none" xmlns="http://www.w3.org/2000/svg">
<path d="M0 8.42105C0 3.77023 3.77023 0 8.42105 0H23.5789C28.2298 0 32 3.77023 32 8.42105V23.5789C32 28.2298 28.2298 32 23.5789 32H8.42105C3.77023 32 0 28.2298 0 23.5789V8.42105Z" fill="#465FFF"/>
<g transform="translate(4, 4) scale(0.421)" fill="white">
<path d="M40 16.3L32.7 7.4L30.7 4.1L32.3 0L22.6 8.2L29.9 17L31.9 20.3L30.3 24.4L40 16.3Z"/>
<path d="M25.9 12.3L14.5 12.5L10.7 12L8.59998 8.2L8.89996 20.9L20.3 20.7L24.1 21.2L26.2 25L25.9 12.3Z"/>
<path d="M14 20.9L7.10001 30L4.39999 32.8L0 32.1L10.1 39.7L17 30.6L19.7 27.9L24.1 28.6L14 20.9Z"/>
<path d="M13.3 35.6L16 46.7L16.5 50.5L13.2 53.5L25.4 50.3L22.6 39.2L22.1 35.4L25.4 32.5L13.3 35.6Z"/>
<path d="M24.3 45.3L34.6 50.1L37.9 52.2L38.2 56.6L43.3 45L32.9 40.2L29.6 38.2L29.3 33.8L24.3 45.3Z"/>
<path d="M38.7 42.7L48.9 37.6L52.5 36.3L56.1 38.8L50.3 27.6L40.1 32.7L36.4 34L32.8 31.5L38.7 42.7Z"/>
<path d="M45.7 29.8L48 18.6L49.3 14.9L53.5 13.7L41.1 11.2L38.8 22.4L37.5 26.1L33.3 27.3L45.7 29.8Z"/>
</g>
</svg>
